<mxfile host="app.diagrams.net" modified="2021-02-12T09:47:37.920Z" agent="5.0 (Macintosh; Intel Mac OS X 10_15_6) AppleWebKit/605.1.15 (KHTML, like Gecko) Version/13.1.2 Safari/605.1.15" etag="ofWNs4uoc5ljTlvMXMaM" version="14.3.0" type="github">
  <diagram id="t83SkoMK5R9BSSCQLpZ3" name="Page-1">
    <mxGraphModel dx="618" dy="420" grid="1" gridSize="10" guides="1" tooltips="1" connect="1" arrows="1" fold="1" page="1" pageScale="1" pageWidth="827" pageHeight="1169" math="0" shadow="0">
      <root>
        <mxCell id="0" />
        <mxCell id="1" parent="0" />
        <mxCell id="eDZWgQ4zsbJcaqitnAeD-14" value="Question" style="swimlane;fontStyle=0;childLayout=stackLayout;horizontal=1;startSize=26;fillColor=none;horizontalStack=0;resizeParent=1;resizeParentMax=0;resizeLast=0;collapsible=1;marginBottom=0;" vertex="1" parent="1">
          <mxGeometry x="71" y="160" width="140" height="156" as="geometry" />
        </mxCell>
        <mxCell id="eDZWgQ4zsbJcaqitnAeD-35" value="id : int" style="text;strokeColor=none;fillColor=none;align=left;verticalAlign=top;spacingLeft=4;spacingRight=4;overflow=hidden;rotatable=0;points=[[0,0.5],[1,0.5]];portConstraint=eastwest;" vertex="1" parent="eDZWgQ4zsbJcaqitnAeD-14">
          <mxGeometry y="26" width="140" height="26" as="geometry" />
        </mxCell>
        <mxCell id="eDZWgQ4zsbJcaqitnAeD-15" value="Description : string" style="text;strokeColor=none;fillColor=none;align=left;verticalAlign=top;spacingLeft=4;spacingRight=4;overflow=hidden;rotatable=0;points=[[0,0.5],[1,0.5]];portConstraint=eastwest;" vertex="1" parent="eDZWgQ4zsbJcaqitnAeD-14">
          <mxGeometry y="52" width="140" height="26" as="geometry" />
        </mxCell>
        <mxCell id="eDZWgQ4zsbJcaqitnAeD-16" value="Difficulty Level : int" style="text;strokeColor=none;fillColor=none;align=left;verticalAlign=top;spacingLeft=4;spacingRight=4;overflow=hidden;rotatable=0;points=[[0,0.5],[1,0.5]];portConstraint=eastwest;" vertex="1" parent="eDZWgQ4zsbJcaqitnAeD-14">
          <mxGeometry y="78" width="140" height="26" as="geometry" />
        </mxCell>
        <mxCell id="eDZWgQ4zsbJcaqitnAeD-18" value="Topic : int" style="text;strokeColor=none;fillColor=none;align=left;verticalAlign=top;spacingLeft=4;spacingRight=4;overflow=hidden;rotatable=0;points=[[0,0.5],[1,0.5]];portConstraint=eastwest;" vertex="1" parent="eDZWgQ4zsbJcaqitnAeD-14">
          <mxGeometry y="104" width="140" height="26" as="geometry" />
        </mxCell>
        <mxCell id="eDZWgQ4zsbJcaqitnAeD-20" value="Type : int" style="text;strokeColor=none;fillColor=none;align=left;verticalAlign=top;spacingLeft=4;spacingRight=4;overflow=hidden;rotatable=0;points=[[0,0.5],[1,0.5]];portConstraint=eastwest;" vertex="1" parent="eDZWgQ4zsbJcaqitnAeD-14">
          <mxGeometry y="130" width="140" height="26" as="geometry" />
        </mxCell>
        <mxCell id="eDZWgQ4zsbJcaqitnAeD-21" value="Topic" style="swimlane;fontStyle=0;childLayout=stackLayout;horizontal=1;startSize=26;fillColor=none;horizontalStack=0;resizeParent=1;resizeParentMax=0;resizeLast=0;collapsible=1;marginBottom=0;" vertex="1" parent="1">
          <mxGeometry x="310" y="30" width="140" height="78" as="geometry" />
        </mxCell>
        <mxCell id="eDZWgQ4zsbJcaqitnAeD-23" value="id : int" style="text;strokeColor=none;fillColor=none;align=left;verticalAlign=top;spacingLeft=4;spacingRight=4;overflow=hidden;rotatable=0;points=[[0,0.5],[1,0.5]];portConstraint=eastwest;" vertex="1" parent="eDZWgQ4zsbJcaqitnAeD-21">
          <mxGeometry y="26" width="140" height="26" as="geometry" />
        </mxCell>
        <mxCell id="eDZWgQ4zsbJcaqitnAeD-24" value="name : string" style="text;strokeColor=none;fillColor=none;align=left;verticalAlign=top;spacingLeft=4;spacingRight=4;overflow=hidden;rotatable=0;points=[[0,0.5],[1,0.5]];portConstraint=eastwest;" vertex="1" parent="eDZWgQ4zsbJcaqitnAeD-21">
          <mxGeometry y="52" width="140" height="26" as="geometry" />
        </mxCell>
        <mxCell id="eDZWgQ4zsbJcaqitnAeD-25" style="edgeStyle=orthogonalEdgeStyle;rounded=0;orthogonalLoop=1;jettySize=auto;html=1;exitX=0;exitY=0.5;exitDx=0;exitDy=0;entryX=0;entryY=0.5;entryDx=0;entryDy=0;" edge="1" parent="1" source="eDZWgQ4zsbJcaqitnAeD-23" target="eDZWgQ4zsbJcaqitnAeD-18">
          <mxGeometry relative="1" as="geometry" />
        </mxCell>
        <mxCell id="eDZWgQ4zsbJcaqitnAeD-30" value="choices" style="swimlane;fontStyle=0;childLayout=stackLayout;horizontal=1;startSize=26;fillColor=none;horizontalStack=0;resizeParent=1;resizeParentMax=0;resizeLast=0;collapsible=1;marginBottom=0;" vertex="1" parent="1">
          <mxGeometry x="320" y="238" width="140" height="130" as="geometry" />
        </mxCell>
        <mxCell id="eDZWgQ4zsbJcaqitnAeD-31" value="id : int" style="text;strokeColor=none;fillColor=none;align=left;verticalAlign=top;spacingLeft=4;spacingRight=4;overflow=hidden;rotatable=0;points=[[0,0.5],[1,0.5]];portConstraint=eastwest;" vertex="1" parent="eDZWgQ4zsbJcaqitnAeD-30">
          <mxGeometry y="26" width="140" height="26" as="geometry" />
        </mxCell>
        <mxCell id="eDZWgQ4zsbJcaqitnAeD-32" value="option : string" style="text;strokeColor=none;fillColor=none;align=left;verticalAlign=top;spacingLeft=4;spacingRight=4;overflow=hidden;rotatable=0;points=[[0,0.5],[1,0.5]];portConstraint=eastwest;" vertex="1" parent="eDZWgQ4zsbJcaqitnAeD-30">
          <mxGeometry y="52" width="140" height="26" as="geometry" />
        </mxCell>
        <mxCell id="eDZWgQ4zsbJcaqitnAeD-33" value="isCorrect : bool" style="text;strokeColor=none;fillColor=none;align=left;verticalAlign=top;spacingLeft=4;spacingRight=4;overflow=hidden;rotatable=0;points=[[0,0.5],[1,0.5]];portConstraint=eastwest;" vertex="1" parent="eDZWgQ4zsbJcaqitnAeD-30">
          <mxGeometry y="78" width="140" height="26" as="geometry" />
        </mxCell>
        <mxCell id="eDZWgQ4zsbJcaqitnAeD-34" value="qid : int" style="text;strokeColor=none;fillColor=none;align=left;verticalAlign=top;spacingLeft=4;spacingRight=4;overflow=hidden;rotatable=0;points=[[0,0.5],[1,0.5]];portConstraint=eastwest;" vertex="1" parent="eDZWgQ4zsbJcaqitnAeD-30">
          <mxGeometry y="104" width="140" height="26" as="geometry" />
        </mxCell>
        <mxCell id="eDZWgQ4zsbJcaqitnAeD-36" style="edgeStyle=orthogonalEdgeStyle;rounded=0;orthogonalLoop=1;jettySize=auto;html=1;exitX=1;exitY=0.5;exitDx=0;exitDy=0;entryX=0;entryY=0.5;entryDx=0;entryDy=0;" edge="1" parent="1" source="eDZWgQ4zsbJcaqitnAeD-35" target="eDZWgQ4zsbJcaqitnAeD-34">
          <mxGeometry relative="1" as="geometry">
            <Array as="points">
              <mxPoint x="266" y="199" />
              <mxPoint x="266" y="355" />
            </Array>
          </mxGeometry>
        </mxCell>
        <mxCell id="eDZWgQ4zsbJcaqitnAeD-58" style="edgeStyle=orthogonalEdgeStyle;rounded=0;orthogonalLoop=1;jettySize=auto;html=1;entryX=0;entryY=0.5;entryDx=0;entryDy=0;" edge="1" parent="1" source="eDZWgQ4zsbJcaqitnAeD-37" target="eDZWgQ4zsbJcaqitnAeD-56">
          <mxGeometry relative="1" as="geometry">
            <mxPoint x="290" y="610" as="targetPoint" />
            <Array as="points">
              <mxPoint x="240" y="190" />
              <mxPoint x="240" y="603" />
            </Array>
          </mxGeometry>
        </mxCell>
        <mxCell id="eDZWgQ4zsbJcaqitnAeD-37" value="1" style="text;html=1;align=center;verticalAlign=middle;resizable=0;points=[];autosize=1;" vertex="1" parent="1">
          <mxGeometry x="211" y="180" width="20" height="20" as="geometry" />
        </mxCell>
        <mxCell id="eDZWgQ4zsbJcaqitnAeD-38" value="M" style="text;html=1;align=center;verticalAlign=middle;resizable=0;points=[];autosize=1;" vertex="1" parent="1">
          <mxGeometry x="285" y="330" width="30" height="20" as="geometry" />
        </mxCell>
        <mxCell id="eDZWgQ4zsbJcaqitnAeD-39" value="M" style="text;html=1;align=center;verticalAlign=middle;resizable=0;points=[];autosize=1;" vertex="1" parent="1">
          <mxGeometry x="275" y="40" width="30" height="20" as="geometry" />
        </mxCell>
        <mxCell id="eDZWgQ4zsbJcaqitnAeD-40" value="1" style="text;html=1;align=center;verticalAlign=middle;resizable=0;points=[];autosize=1;" vertex="1" parent="1">
          <mxGeometry x="50" y="280" width="20" height="20" as="geometry" />
        </mxCell>
        <mxCell id="eDZWgQ4zsbJcaqitnAeD-41" value="signature" style="swimlane;fontStyle=0;childLayout=stackLayout;horizontal=1;startSize=26;fillColor=none;horizontalStack=0;resizeParent=1;resizeParentMax=0;resizeLast=0;collapsible=1;marginBottom=0;" vertex="1" parent="1">
          <mxGeometry x="80" y="440" width="140" height="130" as="geometry" />
        </mxCell>
        <mxCell id="eDZWgQ4zsbJcaqitnAeD-50" value="functionName: string" style="text;strokeColor=none;fillColor=none;align=left;verticalAlign=top;spacingLeft=4;spacingRight=4;overflow=hidden;rotatable=0;points=[[0,0.5],[1,0.5]];portConstraint=eastwest;" vertex="1" parent="eDZWgQ4zsbJcaqitnAeD-41">
          <mxGeometry y="26" width="140" height="26" as="geometry" />
        </mxCell>
        <mxCell id="eDZWgQ4zsbJcaqitnAeD-54" value="inputParams : [{&#xa;}]" style="text;strokeColor=none;fillColor=none;align=left;verticalAlign=top;spacingLeft=4;spacingRight=4;overflow=hidden;rotatable=0;points=[[0,0.5],[1,0.5]];portConstraint=eastwest;" vertex="1" parent="eDZWgQ4zsbJcaqitnAeD-41">
          <mxGeometry y="52" width="140" height="26" as="geometry" />
        </mxCell>
        <mxCell id="eDZWgQ4zsbJcaqitnAeD-55" value="returnParams : string" style="text;strokeColor=none;fillColor=none;align=left;verticalAlign=top;spacingLeft=4;spacingRight=4;overflow=hidden;rotatable=0;points=[[0,0.5],[1,0.5]];portConstraint=eastwest;" vertex="1" parent="eDZWgQ4zsbJcaqitnAeD-41">
          <mxGeometry y="78" width="140" height="26" as="geometry" />
        </mxCell>
        <mxCell id="eDZWgQ4zsbJcaqitnAeD-44" value="qid : int" style="text;strokeColor=none;fillColor=none;align=left;verticalAlign=top;spacingLeft=4;spacingRight=4;overflow=hidden;rotatable=0;points=[[0,0.5],[1,0.5]];portConstraint=eastwest;" vertex="1" parent="eDZWgQ4zsbJcaqitnAeD-41">
          <mxGeometry y="104" width="140" height="26" as="geometry" />
        </mxCell>
        <mxCell id="eDZWgQ4zsbJcaqitnAeD-45" value="testcases" style="swimlane;fontStyle=0;childLayout=stackLayout;horizontal=1;startSize=26;fillColor=none;horizontalStack=0;resizeParent=1;resizeParentMax=0;resizeLast=0;collapsible=1;marginBottom=0;" vertex="1" parent="1">
          <mxGeometry x="300" y="460" width="140" height="156" as="geometry" />
        </mxCell>
        <mxCell id="eDZWgQ4zsbJcaqitnAeD-46" value="id: int" style="text;strokeColor=none;fillColor=none;align=left;verticalAlign=top;spacingLeft=4;spacingRight=4;overflow=hidden;rotatable=0;points=[[0,0.5],[1,0.5]];portConstraint=eastwest;" vertex="1" parent="eDZWgQ4zsbJcaqitnAeD-45">
          <mxGeometry y="26" width="140" height="26" as="geometry" />
        </mxCell>
        <mxCell id="eDZWgQ4zsbJcaqitnAeD-47" value="input : string" style="text;strokeColor=none;fillColor=none;align=left;verticalAlign=top;spacingLeft=4;spacingRight=4;overflow=hidden;rotatable=0;points=[[0,0.5],[1,0.5]];portConstraint=eastwest;" vertex="1" parent="eDZWgQ4zsbJcaqitnAeD-45">
          <mxGeometry y="52" width="140" height="26" as="geometry" />
        </mxCell>
        <mxCell id="eDZWgQ4zsbJcaqitnAeD-48" value="expOutput : string" style="text;strokeColor=none;fillColor=none;align=left;verticalAlign=top;spacingLeft=4;spacingRight=4;overflow=hidden;rotatable=0;points=[[0,0.5],[1,0.5]];portConstraint=eastwest;" vertex="1" parent="eDZWgQ4zsbJcaqitnAeD-45">
          <mxGeometry y="78" width="140" height="26" as="geometry" />
        </mxCell>
        <mxCell id="eDZWgQ4zsbJcaqitnAeD-49" value="type(sample/hidden) : int" style="text;strokeColor=none;fillColor=none;align=left;verticalAlign=top;spacingLeft=4;spacingRight=4;overflow=hidden;rotatable=0;points=[[0,0.5],[1,0.5]];portConstraint=eastwest;" vertex="1" parent="eDZWgQ4zsbJcaqitnAeD-45">
          <mxGeometry y="104" width="140" height="26" as="geometry" />
        </mxCell>
        <mxCell id="eDZWgQ4zsbJcaqitnAeD-56" value="qid : int" style="text;strokeColor=none;fillColor=none;align=left;verticalAlign=top;spacingLeft=4;spacingRight=4;overflow=hidden;rotatable=0;points=[[0,0.5],[1,0.5]];portConstraint=eastwest;" vertex="1" parent="eDZWgQ4zsbJcaqitnAeD-45">
          <mxGeometry y="130" width="140" height="26" as="geometry" />
        </mxCell>
        <mxCell id="eDZWgQ4zsbJcaqitnAeD-51" style="edgeStyle=orthogonalEdgeStyle;rounded=0;orthogonalLoop=1;jettySize=auto;html=1;exitX=0;exitY=0.5;exitDx=0;exitDy=0;entryX=0;entryY=0.5;entryDx=0;entryDy=0;" edge="1" parent="1" source="eDZWgQ4zsbJcaqitnAeD-35" target="eDZWgQ4zsbJcaqitnAeD-44">
          <mxGeometry relative="1" as="geometry">
            <Array as="points">
              <mxPoint x="20" y="199" />
              <mxPoint x="20" y="505" />
            </Array>
          </mxGeometry>
        </mxCell>
        <mxCell id="eDZWgQ4zsbJcaqitnAeD-52" value="1" style="text;html=1;align=center;verticalAlign=middle;resizable=0;points=[];autosize=1;" vertex="1" parent="1">
          <mxGeometry x="50" y="180" width="20" height="20" as="geometry" />
        </mxCell>
        <mxCell id="eDZWgQ4zsbJcaqitnAeD-53" value="1" style="text;html=1;align=center;verticalAlign=middle;resizable=0;points=[];autosize=1;" vertex="1" parent="1">
          <mxGeometry x="50" y="480" width="20" height="20" as="geometry" />
        </mxCell>
        <mxCell id="eDZWgQ4zsbJcaqitnAeD-59" value="M" style="text;html=1;align=center;verticalAlign=middle;resizable=0;points=[];autosize=1;" vertex="1" parent="1">
          <mxGeometry x="275" y="580" width="30" height="20" as="geometry" />
        </mxCell>
      </root>
    </mxGraphModel>
  </diagram>
</mxfile>
